<?xml version="1.0" standalone="no"?>
<!DOCTYPE svg PUBLIC "-//W3C//DTD SVG 20010904//EN"
 "http://www.w3.org/TR/2001/REC-SVG-20010904/DTD/svg10.dtd">
<svg version="1.0" xmlns="http://www.w3.org/2000/svg"
 width="1242.000000pt" height="1242.000000pt" viewBox="0 0 1242.000000 1242.000000"
 preserveAspectRatio="xMidYMid meet">
<metadata>
Created by potrace 1.11, written by Peter Selinger 2001-2013
</metadata>
<g transform="translate(0.000000,1242.000000) scale(0.100000,-0.100000)"
fill="#000000" stroke="none">
<path d="M6186 11696 c-9 -14 -24 -38 -33 -53 -9 -16 -42 -73 -73 -128 -79
-141 -287 -501 -320 -555 -15 -25 -39 -65 -53 -90 -13 -25 -74 -130 -134 -235
-189 -328 -452 -784 -546 -945 -157 -272 -389 -673 -407 -704 -9 -17 -93 -161
-185 -321 -92 -159 -218 -378 -280 -485 -62 -107 -145 -251 -185 -320 -40 -69
-84 -145 -98 -170 -14 -25 -50 -88 -80 -140 -82 -142 -259 -449 -450 -780 -94
-162 -168 -298 -166 -302 3 -5 177 -8 388 -8 352 0 384 1 399 18 8 9 47 71 85
137 38 66 103 180 145 253 43 72 111 192 153 265 42 72 80 137 84 142 4 6 21
35 37 65 17 30 72 127 123 215 137 235 348 600 390 675 20 36 97 169 170 295
73 127 182 316 242 420 60 105 124 215 142 245 19 30 45 75 58 100 14 25 75
131 135 235 201 346 416 719 441 762 13 24 27 45 32 48 5 3 21 -16 36 -42 15
-27 73 -127 129 -223 56 -96 163 -281 237 -410 138 -240 296 -514 530 -917 72
-126 148 -257 168 -293 20 -36 86 -150 147 -255 60 -104 163 -282 228 -395 65
-113 121 -209 125 -215 4 -5 19 -30 32 -55 27 -48 203 -353 418 -725 73 -126
144 -250 158 -275 14 -25 32 -51 40 -57 21 -17 767 -19 777 -2 7 10 -26 69
-275 499 -127 220 -340 589 -563 975 -82 143 -163 285 -180 315 -16 30 -33 60
-37 65 -4 6 -34 55 -65 110 -32 55 -83 143 -113 195 -31 52 -72 124 -92 160
-20 36 -94 164 -164 285 -71 121 -173 299 -229 395 -55 96 -130 227 -167 290
-37 63 -145 250 -240 415 -95 165 -212 368 -260 450 -48 83 -131 227 -185 320
-54 94 -106 184 -115 200 -10 17 -86 149 -169 295 -84 146 -156 269 -161 274
-4 4 -15 -4 -24 -18z"/>
<path d="M4490 2115 c-18 -19 -43 -35 -54 -35 -11 0 -41 -22 -66 -48 -26 -27
-72 -68 -103 -91 -32 -23 -77 -62 -102 -86 -24 -25 -48 -45 -53 -45 -14 0
-141 -159 -184 -230 -77 -128 -105 -297 -63 -383 32 -67 110 -144 168 -165 75
-28 254 -37 330 -17 32 8 69 15 83 15 13 0 50 10 82 21 31 12 84 31 117 42
119 40 226 131 250 210 20 67 19 96 -5 157 -11 28 -20 59 -20 69 0 10 -35 88
-77 172 -43 85 -76 158 -75 163 2 4 -2 13 -7 20 -6 7 -4 18 5 30 8 11 14 30
14 42 0 30 -20 74 -34 74 -6 1 -27 21 -46 46 -19 25 -45 50 -58 55 -57 22 -66
21 -102 -16z m100 -490 c29 -55 56 -104 60 -110 18 -25 19 -65 3 -94 -29 -50
-187 -119 -315 -138 -117 -16 -213 -12 -236 11 -21 20 -4 76 44 148 20 29 41
62 47 74 14 24 142 141 198 179 29 21 41 24 56 16 15 -7 26 -5 48 9 16 11 32
16 36 12 3 -4 30 -52 59 -107z"/>
<path d="M9543 2123 c-30 -10 -69 -41 -130 -104 -49 -50 -91 -99 -95 -110 -14
-36 -116 -164 -125 -156 -1 2 -13 58 -27 125 -14 71 -33 133 -44 149 -23 32
-132 93 -166 93 -32 0 -58 -32 -58 -72 -1 -50 21 -224 38 -308 17 -82 55 -178
91 -226 l22 -30 -39 -68 c-55 -93 -126 -244 -135 -284 -10 -48 33 -118 88
-143 56 -25 87 -24 114 5 21 22 39 54 141 246 18 36 44 81 55 101 12 20 48 81
81 135 99 167 158 254 172 254 8 0 14 7 14 15 0 8 37 54 83 101 45 47 87 94
93 105 19 37 5 78 -40 111 -22 16 -47 40 -54 54 -14 27 -21 28 -79 7z"/>
<path d="M3420 2123 c-83 -12 -176 -60 -232 -119 -31 -35 -82 -133 -97 -190
-11 -41 -31 -66 -62 -77 -25 -8 -80 -112 -86 -160 -3 -23 -10 -47 -14 -53 -10
-12 3 -62 27 -106 18 -34 18 -70 -2 -143 -24 -84 -27 -155 -9 -185 8 -14 19
-36 25 -50 12 -31 55 -49 90 -39 14 4 39 7 56 8 38 1 55 24 83 112 17 52 28
136 31 225 0 6 39 19 88 28 268 52 422 111 504 192 39 38 47 54 58 106 19 98
-6 209 -72 321 -37 63 -58 80 -135 107 -59 21 -188 33 -253 23z m179 -319 c48
-19 51 -29 14 -47 -39 -19 -180 -64 -228 -73 -22 -3 -47 -10 -56 -15 -54 -28
-30 94 25 127 16 9 43 21 60 25 43 11 137 3 185 -17z"/>
<path d="M7695 2114 c-161 -29 -551 -149 -582 -178 -23 -23 -36 -111 -17 -124
5 -4 22 -24 38 -45 15 -21 39 -43 53 -48 28 -10 28 -29 1 -101 -19 -50 -22
-52 -52 -33 -25 17 -29 17 -71 0 -25 -9 -54 -28 -65 -42 -16 -20 -23 -24 -32
-15 -7 7 -20 12 -30 12 -9 0 -22 9 -28 19 -8 16 -17 19 -45 14 -31 -5 -36 -3
-45 22 -13 35 -54 234 -70 340 -15 104 -26 120 -97 139 -32 9 -72 23 -89 30
-30 14 -30 14 -65 -36 -53 -78 -124 -138 -165 -138 -20 0 -43 -9 -58 -22 -27
-24 -136 -219 -136 -243 0 -8 -33 -81 -73 -162 -83 -170 -124 -264 -133 -302
-4 -14 -11 -31 -16 -37 -5 -7 -2 -16 7 -24 8 -7 15 -21 15 -32 0 -11 18 -38
40 -60 37 -37 43 -40 82 -35 22 3 44 9 47 14 3 5 20 19 37 30 24 17 33 34 44
80 14 63 54 159 76 181 8 7 14 20 14 28 0 8 5 12 10 9 6 -3 10 -17 10 -29 0
-13 7 -29 15 -36 8 -7 15 -18 15 -25 0 -27 130 -24 230 5 56 16 90 13 90 -9 0
-31 -38 -70 -76 -77 -19 -3 -36 -10 -39 -14 -2 -4 11 -22 30 -40 22 -21 35
-44 35 -59 0 -20 10 -32 41 -49 38 -22 45 -23 86 -12 53 15 133 84 158 137 14
30 17 53 12 125 -3 50 -2 88 3 88 5 0 25 14 43 30 39 34 47 36 47 16 0 -8 16
-32 36 -53 l36 -38 -17 -70 c-18 -79 -15 -109 22 -171 17 -31 35 -46 68 -58
25 -10 54 -15 65 -11 32 10 60 64 60 114 0 48 34 157 55 180 8 8 33 18 57 22
30 6 351 63 385 69 7 1 73 107 73 117 0 6 -13 25 -30 41 -20 21 -28 36 -23 48
6 16 0 17 -68 11 -41 -4 -116 -12 -167 -19 -110 -14 -120 -9 -102 49 7 21 19
53 26 71 8 18 14 43 14 55 0 13 6 30 13 39 28 37 244 85 442 97 61 4 111 7
112 7 1 -1 -28 -80 -64 -176 -36 -96 -69 -191 -73 -210 -5 -19 -16 -55 -26
-80 -13 -33 -18 -74 -18 -155 -1 -108 0 -111 35 -175 64 -117 151 -136 351
-80 107 30 195 37 378 31 73 -2 140 22 140 51 0 40 -24 124 -39 135 -9 7 -36
19 -60 28 -24 8 -53 23 -64 32 -17 16 -39 18 -166 16 -103 -1 -159 -6 -191
-17 -25 -9 -61 -16 -81 -16 l-36 0 9 52 c5 29 27 99 49 156 21 58 39 112 39
121 0 9 7 25 16 36 8 11 21 40 28 65 7 25 33 92 56 150 l43 104 -25 45 c-23
43 -30 47 -116 77 -110 38 -122 34 -141 -52 -11 -49 -15 -55 -24 -39 -6 11
-24 30 -41 45 -16 14 -40 36 -53 50 -21 23 -32 25 -111 27 -48 1 -123 -4 -167
-13z m-1146 -507 c13 -49 20 -91 17 -94 -9 -9 -195 -28 -201 -21 -7 7 75 136
117 184 17 19 34 31 38 27 4 -4 17 -48 29 -96z"/>
<path d="M5315 2101 c-27 -5 -54 -6 -58 -4 -16 9 -65 -19 -71 -40 -16 -61 4
-134 53 -189 l36 -40 140 12 c176 15 185 14 148 -22 -74 -72 -92 -88 -98 -88
-4 0 -24 -13 -44 -29 -20 -15 -74 -52 -121 -81 -47 -28 -101 -66 -121 -83 -20
-18 -66 -50 -102 -72 -69 -42 -89 -72 -116 -170 -16 -60 -14 -150 4 -165 8 -7
15 -17 15 -22 0 -11 14 -29 67 -86 35 -36 46 -42 57 -33 12 10 17 8 26 -8 9
-17 20 -21 67 -21 88 0 223 28 266 56 20 13 37 20 37 14 0 -16 20 -12 136 26
136 45 200 74 243 111 27 23 33 35 33 67 0 46 -14 65 -36 47 -13 -11 -16 -9
-22 13 -3 15 -20 36 -36 48 l-30 21 -97 -32 c-53 -17 -103 -31 -111 -31 -8 0
-42 -9 -75 -19 -157 -51 -182 -55 -210 -37 -14 9 -25 20 -24 24 0 10 77 67
240 178 87 59 180 133 235 186 49 48 112 102 140 119 118 75 169 186 111 242
-12 12 -28 35 -35 50 -20 47 -57 55 -262 55 -102 0 -219 3 -260 5 -41 3 -97 2
-125 -2z"/>
</g>
</svg>
